<?xml version="1.0" encoding="UTF-8"?>
<svg width="101px" height="51px" viewBox="0 0 101 51" version="1.1" xmlns="http://www.w3.org/2000/svg" xmlns:xlink="http://www.w3.org/1999/xlink">
    <!-- Generator: Sketch 55.1 (78136) - https://sketchapp.com -->
    <title>ibba-02</title>
    <desc>Created with Sketch.</desc>
    <g id="Chassi-IBBA" stroke="none" stroke-width="1" fill="none" fill-rule="evenodd">
        <g id="Header-1440" transform="translate(-164.000000, -66.000000)">
            <g id="header_PF-Copy">
                <g id="topbar/menu/1200px" transform="translate(0.000000, 40.000000)">
                    <g id="ajuda" transform="translate(164.000000, 26.000000)">
                        <g id="ibba-02">
                            <path d="M58.8174603,34.4907975 L60.2619048,34.4907975 C62.3253968,34.4907975 63.8730159,35.1165644 63.8730159,36.7852761 C63.8730159,38.5582822 62.2222222,39.1840491 60.468254,39.1840491 C59.7460317,39.1840491 59.2301587,39.1840491 58.8174603,39.0797546 L58.8174603,34.4907975 Z M58.8174603,28.0245399 C59.1269841,27.9202454 59.6428571,27.9202454 60.6746032,27.9202454 C62.531746,27.9202454 63.5634921,28.4417178 63.5634921,29.797546 C63.5634921,30.9447853 62.531746,31.7791411 60.2619048,31.7791411 L58.9206349,31.7791411 L58.9206349,28.0245399 L58.8174603,28.0245399 Z M55,41.791411 C55.8253968,41.8957055 57.2698413,42 59.3333333,42 C62.7380952,42 64.9047619,41.4785276 66.1428571,40.5398773 C67.2777778,39.7055215 68,38.4539877 68,36.8895706 C68,34.6993865 66.452381,33.2392638 64.5952381,32.8220859 L64.5952381,32.7177914 C66.5555556,31.9877301 67.3809524,30.6319018 67.3809524,29.1717791 C67.3809524,27.5030675 66.452381,26.3558282 65.2142857,25.8343558 C63.9761905,25.208589 62.6349206,25 60.1587302,25 C58.1984127,25 55.9285714,25.208589 55,25.4171779 L55,41.791411 L55,41.791411 Z" id="Shape" fill="#004388" fill-rule="nonzero"></path>
                            <path d="M73.9206349,34.3865031 L75.3650794,34.3865031 C77.4285714,34.3865031 78.9761905,35.0122699 78.9761905,36.6809816 C78.9761905,38.4539877 77.3253968,39.0797546 75.5714286,39.0797546 C74.8492063,39.0797546 74.3333333,39.0797546 73.9206349,38.9754601 L73.9206349,34.3865031 L73.9206349,34.3865031 Z M73.9206349,27.9202454 C74.2301587,27.8159509 74.7460317,27.8159509 75.7777778,27.8159509 C77.531746,27.8159509 78.6666667,28.3374233 78.6666667,29.6932515 C78.6666667,30.8404908 77.6349206,31.6748466 75.3650794,31.6748466 L74.0238095,31.6748466 L74.0238095,27.9202454 L73.9206349,27.9202454 Z M70,41.6871166 C70.8253968,41.791411 72.3730159,42 74.3333333,42 C77.7380952,42 79.9047619,41.4785276 81.1428571,40.5398773 C82.2777778,39.7055215 83,38.4539877 83,36.8895706 C83,34.6993865 81.452381,33.2392638 79.5952381,32.8220859 L79.5952381,32.7177914 C81.5555556,31.9877301 82.3809524,30.6319018 82.3809524,29.1717791 C82.3809524,27.5030675 81.452381,26.3558282 80.2142857,25.8343558 C78.9761905,25.208589 77.6349206,25 75.1587302,25 C73.1984127,25 70.9285714,25.208589 70,25.4171779 L70,41.6871166 Z" id="Shape" fill="#004388" fill-rule="nonzero"></path>
                            <path d="M90.2012579,34.5157233 L91.3773585,30.8805031 C91.6981132,29.918239 91.9119497,28.7421384 92.2327044,27.7798742 L92.2327044,27.7798742 C92.5534591,28.7421384 92.8742138,29.8113208 93.1949686,30.8805031 L94.3710692,34.5157233 L90.2012579,34.5157233 Z M95.0125786,37.509434 L96.509434,42 L101,42 L95.0125786,25 L89.6666667,25 L84,42 L88.2767296,42 L89.6666667,37.509434 L95.0125786,37.509434 Z" id="Shape" fill="#004388" fill-rule="nonzero"></path>
                            <path d="M8.53556485,0 L42.4644351,0 C47.1589958,0 51,3.83298539 51,8.5177453 L51,42.4822547 C51,47.1670146 47.1589958,51 42.4644351,51 L8.53556485,51 C3.84100418,51 0,47.1670146 0,42.4822547 L0,8.5177453 C0,3.83298539 3.84100418,0 8.53556485,0" id="Path" fill="#004388"></path>
                            <rect id="Rectangle" fill="#FAEA27" x="4" y="25" width="4" height="17"></rect>
                            <g id="Group" transform="translate(9.000000, 25.000000)" fill="#FAEA27">
                                <path d="M18.8914286,12.1052632 C18.8914286,12.3157895 18.8914286,12.5263158 18.7828571,12.7368421 C18.7828571,12.7368421 18.7828571,12.8421053 18.7828571,12.8421053 C18.7828571,12.8421053 18.7828571,12.8421053 18.7828571,12.9473684 C18.4571429,13.7894737 17.48,14.5263158 16.2857143,14.5263158 C15.2,14.5263158 14.44,14 14.44,12.9473684 C14.44,11.7894737 15.5257143,11.1578947 17.0457143,10.9473684 C17.3714286,10.8421053 17.8057143,10.8421053 18.24,10.8421053 C18.4571429,10.8421053 18.7828571,10.8421053 19,10.8421053 L19,12.1052632 L18.8914286,12.1052632 Z M16.6114286,3.78947368 C14.1142857,3.78947368 12.2685714,4.42105263 11.2914286,4.94736842 L12.0514286,7.47368421 C12.92,6.94736842 14.5485714,6.42105263 15.96,6.42105263 C18.3485714,6.42105263 18.7828571,7.57894737 18.7828571,8.21052632 L18.7828571,8.31578947 C13.5714286,8.31578947 10.3142857,9.89473684 10.3142857,13.1578947 C10.3142857,15.0526316 11.8342857,17.0526316 14.7657143,17.0526316 C16.5028571,17.0526316 17.9142857,16.4210526 18.7828571,15.4736842 L18.7828571,15.4736842 L19.2171429,16.7368421 L22.4742857,16.7368421 L22.4742857,9.26315789 C22.5828571,6.31578947 21.0628571,3.78947368 16.6114286,3.78947368 L16.6114286,3.78947368 Z" id="Shape" fill-rule="nonzero"></path>
                                <path d="M33.7657143,4.21052632 L33.7657143,11.5789474 C33.7657143,11.8947368 33.7657143,12.1052632 33.6571429,12.4210526 C33.3314286,13.1578947 32.5714286,14 31.2685714,14 C29.64,14 28.88,12.8421053 28.88,10.8421053 L28.88,4.21052632 L24.9714286,4.21052632 L24.9714286,11.5789474 C24.9714286,12.5263158 25.08,13.3684211 25.2971429,14.1052632 C25.5142857,14.8421053 25.84,15.3684211 26.2742857,15.7894737 C26.7085714,16.2105263 27.2514286,16.5263158 27.7942857,16.7368421 C28.3371429,16.9473684 28.9885714,17.0526316 29.7485714,17.0526316 C30.4,17.0526316 30.9428571,16.9473684 31.3771429,16.8421053 C31.8114286,16.7368421 32.2457143,16.5263158 32.5714286,16.3157895 C32.8971429,16.1052632 33.2228571,15.8947368 33.44,15.6842105 C33.6571429,15.4736842 33.8742857,15.2631579 33.9828571,15.0526316 L34.5257143,16.8421053 L37.6742857,16.8421053 L37.6742857,4.21052632 L33.7657143,4.21052632 Z" id="Path"></path>
                                <path d="M2.38857143,0 L2.38857143,4.21052632 L0.542857143,4.21052632 L0.542857143,7.05263158 L2.38857143,7.05263158 L2.38857143,12.2105263 C2.38857143,13.8947368 2.71428571,15.1578947 3.47428571,16 C4.12571429,16.6315789 5.21142857,17.1578947 6.62285714,17.1578947 C7.81714286,17.1578947 8.25142857,16.9473684 8.79428571,16.7368421 L8.79428571,13.7894737 C8.68571429,13.7894737 8.36,13.8947368 7.92571429,13.8947368 C6.51428571,13.8947368 6.18857143,13.0526316 6.18857143,11.4736842 L6.18857143,7.05263158 L8.68571429,7.05263158 L8.68571429,4.21052632 L6.18857143,4.21052632 L6.18857143,0 L2.38857143,0 L2.38857143,0 Z" id="Path"></path>
                            </g>
                            <polygon id="Path" fill="#FAEA27" points="40.3157895 25 38 29 40.7368421 29 44 25"></polygon>
                        </g>
                    </g>
                </g>
            </g>
        </g>
    </g>
</svg>